<svg xmlns="http://www.w3.org/2000/svg" width="144" height="31" viewBox="0 0 144 31">
    <g fill="#FFF" fill-rule="nonzero">
        <path d="M142.39.504h-3.256c-.93 0-1.49.553-1.49 1.467v9.488c0 3.483-1.907 5.454-4.56 5.454-2.791 0-4.373-1.787-4.373-5.224V1.97c0-.916-.562-1.467-1.49-1.467h-3.256c-.93 0-1.49.553-1.49 1.467v10.176c0 6.463 3.398 10.129 8.516 10.129 3.07 0 5.444-1.008 7.118-3.071l.281 1.284c.187.83.745 1.283 1.629 1.283h2.372c.932 0 1.49-.554 1.49-1.467V1.971c-.002-.916-.56-1.467-1.491-1.467zM119.684 16.18h-5.862c-2.047 0-3.118-1.054-3.118-3.071V1.97c0-.916-.562-1.467-1.489-1.467h-3.35c-.93 0-1.488.553-1.488 1.467v11.917c0 4.904 3.023 7.888 8.008 7.888h7.305c.93 0 1.49-.553 1.49-1.467v-2.663c-.006-.916-.566-1.466-1.496-1.466zM24.858 1.925C24.764.969 24.252.504 23.32.504h-2.466c-.79 0-1.348.32-1.767 1.009l-6.003 9.992-5.583-9.992C7.13.82 6.519.503 5.733.503h-2.65c-.932 0-1.444.466-1.538 1.422L.011 20.259c-.094 1.01.422 1.513 1.395 1.513h2.979c.93 0 1.489-.458 1.535-1.421l.652-10.268 3.582 6.366c.373.692.984 1.01 1.768 1.01h2.048c.791 0 1.349-.278 1.767-1.01l4.05-6.83.464 10.726c.047.969.562 1.421 1.49 1.421h3.21c.983 0 1.489-.503 1.395-1.512L24.858 1.925zM100.048.504H97.49c-.885 0-1.49.458-1.628 1.33l-.14 1.054C94.28 1.376 92.184 0 88.695 0c-5.863 0-10.19 4.538-10.19 11.092 0 6.417 4.047 11.184 9.817 11.184 3.63 0 6.003-1.513 7.446-3.071l.233 1.284c.14.83.703 1.283 1.582 1.283h2.466c.931 0 1.489-.554 1.489-1.467V1.971c-.001-.916-.56-1.467-1.49-1.467zm-9.995 16.409c-3.305 0-5.398-2.246-5.398-5.73 0-3.528 2.186-5.82 5.398-5.82 3.303 0 5.396 2.246 5.396 5.73-.007 3.528-2.193 5.82-5.396 5.82zM74.783.504h-2.558c-.885 0-1.49.458-1.63 1.33l-.14 1.054C69.013 1.376 66.92 0 63.43 0c-5.862 0-10.185 4.263-10.185 10.817 0 6.234 4.001 10.634 9.77 10.634 3.583 0 5.724-1.467 7.166-3.025v1.054c0 3.666-2.094 6.005-6.513 6.005-1.813 0-3.605-.377-5.259-1.107-.883-.415-1.582-.23-2 .64l-1.024 2.018c-.422.83-.281 1.513.512 1.971 2.466 1.374 5.49 1.925 8.421 1.925 7.305 0 11.958-4.538 11.958-10.864V1.971c-.004-.916-.562-1.467-1.493-1.467zM64.78 16.225c-3.211 0-5.397-2.108-5.397-5.363 0-3.437 2.279-5.5 5.397-5.5 3.21 0 5.396 1.88 5.396 5.41 0 3.161-2.278 5.453-5.396 5.453zM49.518.504h-2.559c-.885 0-1.489.458-1.63 1.33l-.14 1.054C43.748 1.376 41.655 0 38.165 0c-5.863 0-10.19 4.538-10.19 11.092 0 6.417 4.048 11.184 9.818 11.184 3.628 0 6.001-1.513 7.445-3.071l.234 1.284c.14.83.702 1.283 1.582 1.283h2.465c.932 0 1.49-.554 1.49-1.467V1.971c-.002-.916-.56-1.467-1.491-1.467zM39.514 16.913c-3.303 0-5.398-2.246-5.398-5.73 0-3.528 2.187-5.82 5.398-5.82 3.304 0 5.397 2.246 5.397 5.73 0 3.528-2.186 5.82-5.397 5.82z"/>
    </g>
</svg>
